

<svg version="1.1" id="레이어_1" xmlns="http://www.w3.org/2000/svg" xmlns:xlink="http://www.w3.org/1999/xlink" x="0px" y="0px" viewBox="0 0 331.5 101.6" enable-background="new 0 0 331.5 101.6" xml:space="preserve">
<g>
	<g>
		<polygon fill="#1E1E1E" points="123.9,62.5 166.3,62.5 166.3,54.1 132.4,54.1 132.4,28.5 166.3,28.5 166.3,20.1 123.9,20.1 		"></polygon>
		<rect x="289.1" y="20.1" fill="#1E1E1E" width="42.4" height="8.4"></rect>
		<rect x="289.1" y="37.1" fill="#1E1E1E" width="42.4" height="8.4"></rect>
		<rect x="289.1" y="54.1" fill="#1E1E1E" width="42.4" height="8.4"></rect>
		<polygon fill="#1E1E1E" points="221.5,20.1 213.1,20.1 213.1,54.1 187.5,54.1 187.5,20.1 179.1,20.1 179.1,62.5 221.5,62.5 		"></polygon>
		<path fill="#1E1E1E" d="M276.6,62.5V37.1h-8.4v-8.5v-8.4h-34v42.4H276.6z M242.6,28.5h17.1v8.5h-17.1V28.5z M242.6,54.1v-8.5h25.5
			v8.5H242.6z"></path>
		<polygon fill="#1E1E1E" points="146.6,78.1 141.5,70.8 140.8,70.8 140.8,79.6 141.5,79.6 141.5,72.4 146.6,79.6 147.3,79.6 
			147.3,70.8 146.6,70.8 		"></polygon>
		<polygon fill="#1E1E1E" points="275,77.1 271.9,70.8 271.2,70.8 271.2,79.6 271.9,79.6 271.9,72.9 274.6,78.3 275.4,78.3 
			278,72.9 278,79.6 278.8,79.6 278.8,70.8 278,70.8 		"></polygon>
		<polygon fill="#1E1E1E" points="258.9,78.1 253.8,70.8 253.1,70.8 253.1,79.6 253.8,79.6 253.8,72.4 258.9,79.6 259.6,79.6 
			259.6,70.8 258.9,70.8 		"></polygon>
		<polygon fill="#1E1E1E" points="312.8,78.1 307.8,70.8 307.1,70.8 307.1,79.6 307.8,79.6 307.8,72.4 312.8,79.6 313.6,79.6 
			313.6,70.8 312.8,70.8 		"></polygon>
		<polygon fill="#1E1E1E" points="124.9,70.8 124.9,70.8 124.9,79.6 124.9,79.6 124.9,79.6 130.5,79.6 130.5,78.9 125.6,78.9 
			125.6,75.6 129.9,75.6 129.9,74.9 125.6,74.9 125.6,71.5 130.5,71.5 130.5,70.8 		"></polygon>
		<polygon fill="#1E1E1E" points="180.4,79.6 180.4,78.9 175.5,78.9 175.5,75.6 179.8,75.6 179.8,74.9 175.5,74.9 175.5,71.5 
			180.4,71.5 180.4,70.8 174.8,70.8 174.8,70.8 174.8,79.6 174.8,79.6 174.8,79.6 		"></polygon>
		<polygon fill="#1E1E1E" points="296,79.6 296,78.9 291.2,78.9 291.2,75.6 295.5,75.6 295.5,74.9 291.2,74.9 291.2,71.5 296,71.5 
			296,70.8 290.5,70.8 290.5,70.8 290.5,79.6 290.5,79.6 290.5,79.6 		"></polygon>
		<polygon fill="#1E1E1E" points="158,70.8 158,71.5 160.7,71.5 160.7,79.6 161.4,79.6 161.4,71.5 164.1,71.5 164.1,70.8 		"></polygon>
		<polygon fill="#1E1E1E" points="207.6,70.8 207.6,71.5 210.3,71.5 210.3,79.6 211,79.6 211,71.5 213.7,71.5 213.7,70.8 		"></polygon>
		<polygon fill="#1E1E1E" points="324.2,70.8 324.2,71.5 326.9,71.5 326.9,79.6 327.6,79.6 327.6,71.5 330.3,71.5 330.3,70.8 		"></polygon>
		<rect x="240.6" y="70.8" fill="#1E1E1E" width="0.7" height="8.8"></rect>
		<path fill="#1E1E1E" d="M225.9,70.8l-3.3,8.8h0.7l0.8-2h4.4l0.8,2h0.7l-3.3-8.8H225.9z M228.2,76.9h-3.9l1.9-5.1L228.2,76.9z"></path>
		<path fill="#1E1E1E" d="M191.4,79.6h0.7v-3.9h2.5l2.1,3.9h0.7l-2.1-3.9c1.2-0.2,2.1-1.2,2.1-2.5c0-1.4-1.1-2.5-2.5-2.5v0l-3.6,0
			L191.4,79.6z M194.9,75.1h-2.8v-3.5h2.8c1,0,1.8,0.8,1.8,1.8C196.7,74.3,195.9,75.1,194.9,75.1L194.9,75.1z"></path>
	</g>
	<g>
		
			<radialGradient id="SVGID_1_" cx="5.5338" cy="-1370.9344" r="54.3796" gradientTransform="matrix(0.8923 0 0 0.1028 44.3597 236.9684)" gradientUnits="userSpaceOnUse">
			<stop offset="0" style="stop-color:#00000F"></stop>
			<stop offset="1" style="stop-color:#00000F;stop-opacity:0"></stop>
		</radialGradient>
		<ellipse fill="url(#SVGID_1_)" cx="49.3" cy="96" rx="48.5" ry="5.6"></ellipse>
		<g>
			<polygon fill="#127DC3" points="84,0 48.8,4.6 52.1,14.3 			"></polygon>
			
				<linearGradient id="SVGID_00000111182768196045506940000017789340248554738847_" gradientUnits="userSpaceOnUse" x1="72.0975" y1="53.7193" x2="85.3212" y2="0.6819">
				<stop offset="0" style="stop-color:#1D7FC6"></stop>
				<stop offset="1" style="stop-color:#07539E"></stop>
			</linearGradient>
			<polygon fill="url(#SVGID_00000111182768196045506940000017789340248554738847_)" points="64.4,51.5 100.1,61.1 84,0 52.1,14.3 
							"></polygon>
			
				<linearGradient id="SVGID_00000060711689463237680080000014389673417447491988_" gradientUnits="userSpaceOnUse" x1="9.8834" y1="50.6194" x2="29.8257" y2="46.3806">
				<stop offset="0" style="stop-color:#0C9EC5"></stop>
				<stop offset="0.9" style="stop-color:#096EB6"></stop>
			</linearGradient>
			<polygon fill="url(#SVGID_00000060711689463237680080000014389673417447491988_)" points="22.4,27.6 0,24.9 22,75.9 37.8,66.8 
							"></polygon>
			
				<linearGradient id="SVGID_00000040550468471645046380000017832837399461060484_" gradientUnits="userSpaceOnUse" x1="3.1485" y1="29.8023" x2="51.0627" y2="8.4696">
				<stop offset="0.2" style="stop-color:#07539E"></stop>
				<stop offset="1" style="stop-color:#25A5E2"></stop>
			</linearGradient>
			<polygon fill="url(#SVGID_00000040550468471645046380000017832837399461060484_)" points="52.1,14.3 48.8,4.6 0,24.9 22.4,27.6 
							"></polygon>
			
				<linearGradient id="SVGID_00000136410211978995524690000005537488026679485096_" gradientUnits="userSpaceOnUse" x1="25.9784" y1="44.559" x2="61.3705" y2="37.0362">
				<stop offset="0" style="stop-color:#42BCEB"></stop>
				<stop offset="0.9" style="stop-color:#1D7FC6"></stop>
			</linearGradient>
			<polygon fill="url(#SVGID_00000136410211978995524690000005537488026679485096_)" points="22.4,27.6 37.8,66.8 64.4,51.5 
				52.1,14.3 			"></polygon>
			
				<linearGradient id="SVGID_00000134223557917058169830000010927811397804933001_" gradientUnits="userSpaceOnUse" x1="24.0408" y1="85.5256" x2="46.079" y2="80.8412">
				<stop offset="0" style="stop-color:#29A2D7"></stop>
				<stop offset="0.9" style="stop-color:#1774AD"></stop>
			</linearGradient>
			<polygon fill="url(#SVGID_00000134223557917058169830000010927811397804933001_)" points="22,75.9 49.3,96 37.8,66.8 			"></polygon>
			
				<linearGradient id="SVGID_00000164502483427369709080000008891344420570132866_" gradientUnits="userSpaceOnUse" x1="43.3235" y1="79.7492" x2="98.6744" y2="55.1054">
				<stop offset="0" style="stop-color:#2A96D6"></stop>
				<stop offset="0.9" style="stop-color:#225596"></stop>
			</linearGradient>
			<polygon fill="url(#SVGID_00000164502483427369709080000008891344420570132866_)" points="64.4,51.5 37.8,66.8 49.3,96 
				100.1,61.1 			"></polygon>
		</g>
	</g>
</g>
</svg>
