
<svg version="1.0" width="500" height="761.62799" viewBox="0 0 374.99999 571.22097" preserveAspectRatio="xMidYMid meet" id="svg119" xmlns:xlink="http://www.w3.org/1999/xlink" xmlns="http://www.w3.org/2000/svg">
  <defs id="defs123">
    <linearGradient id="linearGradient1680">
      <stop style="stop-color:#e11900;stop-opacity:1" offset="0" id="stop1676"></stop>
      <stop style="stop-color:#7e00bf;stop-opacity:1" offset="1" id="stop1678"></stop>
    </linearGradient>
    <linearGradient id="linearGradient1674">
      <stop style="stop-color:#e11900;stop-opacity:1" offset="0" id="stop1670"></stop>
      <stop style="stop-color:#7e00bf;stop-opacity:1" offset="1" id="stop1672"></stop>
    </linearGradient>
    <linearGradient id="linearGradient1668">
      <stop style="stop-color:#e11900;stop-opacity:1" offset="0" id="stop1664"></stop>
      <stop style="stop-color:#7e00bf;stop-opacity:1" offset="1" id="stop1666"></stop>
    </linearGradient>
    <linearGradient id="linearGradient1662">
      <stop style="stop-color:#e11900;stop-opacity:1" offset="0" id="stop1658"></stop>
      <stop style="stop-color:#7e00bf;stop-opacity:1" offset="1" id="stop1660"></stop>
    </linearGradient>
    <linearGradient id="linearGradient1656">
      <stop style="stop-color:#e11900;stop-opacity:1" offset="0" id="stop1652"></stop>
      <stop style="stop-color:#7e00bf;stop-opacity:1" offset="1" id="stop1654"></stop>
    </linearGradient>
    <linearGradient id="linearGradient1650">
      <stop style="stop-color:#e11900;stop-opacity:1" offset="0" id="stop1646"></stop>
      <stop style="stop-color:#7e00bf;stop-opacity:1" offset="1" id="stop1648"></stop>
    </linearGradient>
    <linearGradient id="linearGradient1644">
      <stop style="stop-color:#e11900;stop-opacity:1" offset="0" id="stop1640"></stop>
      <stop style="stop-color:#7e00bf;stop-opacity:1" offset="1" id="stop1642"></stop>
    </linearGradient>
    <linearGradient id="linearGradient1638">
      <stop style="stop-color:#e11900;stop-opacity:1" offset="0" id="stop1634"></stop>
      <stop style="stop-color:#7e00bf;stop-opacity:1" offset="1" id="stop1636"></stop>
    </linearGradient>
    <linearGradient id="linearGradient1632">
      <stop style="stop-color:#e11900;stop-opacity:1" offset="0" id="stop1628"></stop>
      <stop style="stop-color:#7e00bf;stop-opacity:1" offset="1" id="stop1630"></stop>
    </linearGradient>
    <linearGradient id="linearGradient1626">
      <stop style="stop-color:#e11900;stop-opacity:1" offset="0" id="stop1622"></stop>
      <stop style="stop-color:#7e00bf;stop-opacity:1" offset="1" id="stop1624"></stop>
    </linearGradient>
    <linearGradient id="linearGradient1620">
      <stop style="stop-color:#e11900;stop-opacity:1" offset="0" id="stop1616"></stop>
      <stop style="stop-color:#7e00bf;stop-opacity:1" offset="1" id="stop1618"></stop>
    </linearGradient>
    <linearGradient id="linearGradient1614">
      <stop style="stop-color:#e11900;stop-opacity:1" offset="0" id="stop1610"></stop>
      <stop style="stop-color:#7e00bf;stop-opacity:1" offset="1" id="stop1612"></stop>
    </linearGradient>
    <linearGradient id="linearGradient1608">
      <stop style="stop-color:#e11900;stop-opacity:1" offset="0" id="stop1604"></stop>
      <stop style="stop-color:#7e00bf;stop-opacity:1" offset="1" id="stop1606"></stop>
    </linearGradient>
    <linearGradient id="linearGradient1602">
      <stop style="stop-color:#e11900;stop-opacity:1" offset="0" id="stop1598"></stop>
      <stop style="stop-color:#7e00bf;stop-opacity:1" offset="1" id="stop1600"></stop>
    </linearGradient>
    <linearGradient id="linearGradient1596">
      <stop style="stop-color:#e11900;stop-opacity:1" offset="0" id="stop1592"></stop>
      <stop style="stop-color:#7e00bf;stop-opacity:1" offset="1" id="stop1594"></stop>
    </linearGradient>
    <linearGradient id="linearGradient1590">
      <stop style="stop-color:#e11900;stop-opacity:1" offset="0" id="stop1586"></stop>
      <stop style="stop-color:#7e00bf;stop-opacity:1" offset="1" id="stop1588"></stop>
    </linearGradient>
    <linearGradient id="linearGradient1584">
      <stop style="stop-color:#e11900;stop-opacity:1" offset="0" id="stop1580"></stop>
      <stop style="stop-color:#7e00bf;stop-opacity:1" offset="1" id="stop1582"></stop>
    </linearGradient>
    <linearGradient id="linearGradient1578">
      <stop style="stop-color:#e11900;stop-opacity:1" offset="0" id="stop1574"></stop>
      <stop style="stop-color:#7e00bf;stop-opacity:1" offset="1" id="stop1576"></stop>
    </linearGradient>
    <linearGradient id="linearGradient1572">
      <stop style="stop-color:#e11900;stop-opacity:1" offset="0" id="stop1568"></stop>
      <stop style="stop-color:#7e00bf;stop-opacity:1" offset="1" id="stop1570"></stop>
    </linearGradient>
    <linearGradient id="linearGradient1566">
      <stop style="stop-color:#e11900;stop-opacity:1" offset="0" id="stop1562"></stop>
      <stop style="stop-color:#7e00bf;stop-opacity:1" offset="1" id="stop1564"></stop>
    </linearGradient>
    <linearGradient id="linearGradient1560">
      <stop style="stop-color:#e11900;stop-opacity:1" offset="0" id="stop1556"></stop>
      <stop style="stop-color:#7e00bf;stop-opacity:1" offset="1" id="stop1558"></stop>
    </linearGradient>
    <linearGradient id="linearGradient1554">
      <stop style="stop-color:#e11900;stop-opacity:1" offset="0" id="stop1550"></stop>
      <stop style="stop-color:#7e00bf;stop-opacity:1" offset="1" id="stop1552"></stop>
    </linearGradient>
    <linearGradient id="linearGradient1548">
      <stop style="stop-color:#e11900;stop-opacity:1" offset="0" id="stop1544"></stop>
      <stop style="stop-color:#7e00bf;stop-opacity:1" offset="1" id="stop1546"></stop>
    </linearGradient>
    <linearGradient id="linearGradient1542">
      <stop style="stop-color:#e11900;stop-opacity:1" offset="0" id="stop1538"></stop>
      <stop style="stop-color:#7e00bf;stop-opacity:1" offset="1" id="stop1540"></stop>
    </linearGradient>
    <linearGradient id="linearGradient543">
      <stop style="stop-color:#e11900;stop-opacity:1" offset="0" id="stop539"></stop>
      <stop style="stop-color:#7e00bf;stop-opacity:1" offset="1" id="stop541"></stop>
    </linearGradient>
    <linearGradient xlink:href="#linearGradient543" id="linearGradient545" x1="7747.9937" y1="64898.977" x2="45524.992" y2="9204.9756" gradientUnits="userSpaceOnUse" gradientTransform="translate(0.00641813,0.02394711)"></linearGradient>
    <linearGradient xlink:href="#linearGradient1680" id="linearGradient547" x1="7748" y1="64899" x2="45525" y2="9205" gradientUnits="userSpaceOnUse"></linearGradient>
    <linearGradient xlink:href="#linearGradient1674" id="linearGradient549" x1="7748" y1="64899" x2="45525" y2="9205" gradientUnits="userSpaceOnUse"></linearGradient>
    <linearGradient xlink:href="#linearGradient1668" id="linearGradient551" x1="7748" y1="64899" x2="45525" y2="9205" gradientUnits="userSpaceOnUse"></linearGradient>
    <linearGradient xlink:href="#linearGradient1662" id="linearGradient553" x1="7748" y1="64899" x2="45525" y2="9205" gradientUnits="userSpaceOnUse"></linearGradient>
    <linearGradient xlink:href="#linearGradient1656" id="linearGradient555" x1="7748" y1="64899" x2="45525" y2="9205" gradientUnits="userSpaceOnUse"></linearGradient>
    <linearGradient xlink:href="#linearGradient1650" id="linearGradient557" x1="7748" y1="64899" x2="45525" y2="9205" gradientUnits="userSpaceOnUse"></linearGradient>
    <linearGradient xlink:href="#linearGradient1644" id="linearGradient559" x1="7748" y1="64899" x2="45525" y2="9205" gradientUnits="userSpaceOnUse"></linearGradient>
    <linearGradient xlink:href="#linearGradient1638" id="linearGradient561" x1="7748" y1="64899" x2="45525" y2="9205" gradientUnits="userSpaceOnUse"></linearGradient>
    <linearGradient xlink:href="#linearGradient1632" id="linearGradient563" x1="7748" y1="64899" x2="45525" y2="9205" gradientUnits="userSpaceOnUse"></linearGradient>
    <linearGradient xlink:href="#linearGradient1626" id="linearGradient565" x1="7748" y1="64899" x2="45525" y2="9205" gradientUnits="userSpaceOnUse"></linearGradient>
    <linearGradient xlink:href="#linearGradient1620" id="linearGradient567" x1="7748" y1="64899" x2="45525" y2="9205" gradientUnits="userSpaceOnUse"></linearGradient>
    <linearGradient xlink:href="#linearGradient1614" id="linearGradient569" x1="7748" y1="64899" x2="45525" y2="9205" gradientUnits="userSpaceOnUse"></linearGradient>
    <linearGradient xlink:href="#linearGradient1608" id="linearGradient571" x1="7748" y1="64899" x2="45525" y2="9205" gradientUnits="userSpaceOnUse"></linearGradient>
    <linearGradient xlink:href="#linearGradient1602" id="linearGradient573" x1="7748" y1="64899" x2="45525" y2="9205" gradientUnits="userSpaceOnUse"></linearGradient>
    <linearGradient xlink:href="#linearGradient1596" id="linearGradient575" x1="7748" y1="64899" x2="45525" y2="9205" gradientUnits="userSpaceOnUse"></linearGradient>
    <linearGradient xlink:href="#linearGradient1590" id="linearGradient577" x1="7748" y1="64899" x2="45525" y2="9205" gradientUnits="userSpaceOnUse"></linearGradient>
    <linearGradient xlink:href="#linearGradient1584" id="linearGradient579" x1="7748" y1="64899" x2="45525" y2="9205" gradientUnits="userSpaceOnUse"></linearGradient>
    <linearGradient xlink:href="#linearGradient1578" id="linearGradient581" x1="7748" y1="64899" x2="45525" y2="9205" gradientUnits="userSpaceOnUse"></linearGradient>
    <linearGradient xlink:href="#linearGradient1572" id="linearGradient583" x1="7748" y1="64899" x2="45525" y2="9205" gradientUnits="userSpaceOnUse"></linearGradient>
    <linearGradient xlink:href="#linearGradient1566" id="linearGradient585" x1="7748" y1="64899" x2="45525" y2="9205" gradientUnits="userSpaceOnUse"></linearGradient>
    <linearGradient xlink:href="#linearGradient1560" id="linearGradient587" x1="7748" y1="64899" x2="45525" y2="9205" gradientUnits="userSpaceOnUse"></linearGradient>
    <linearGradient xlink:href="#linearGradient1554" id="linearGradient589" x1="7748" y1="64899" x2="45525" y2="9205" gradientUnits="userSpaceOnUse"></linearGradient>
    <linearGradient xlink:href="#linearGradient1548" id="linearGradient591" x1="7748" y1="64899" x2="45525" y2="9205" gradientUnits="userSpaceOnUse"></linearGradient>
    <linearGradient xlink:href="#linearGradient1542" id="linearGradient593" x1="7748" y1="64899" x2="45525" y2="9205" gradientUnits="userSpaceOnUse"></linearGradient>
  </defs>
  <g transform="matrix(0.1,0,0,-0.1,0,7605)" fill="#000000" stroke="none" id="g117">
    <g id="g2235" transform="matrix(0.07512245,0,0,0.07512245,-0.7512245,70336.938)">
      <path d="m 24799.999,75890 c 0,-88 -2,-160 -3,-160 -2,0 -30,9 -63,20 -105,37 -376,101 -484,116 -219,29 -428,15 -675,-46 -249,-61 -343,-113 -880,-482 -236,-162 -500,-337 -585,-388 C 21737,74725 21412,74590 21185,74565 c -33,-3 -76,-8 -96,-11 -33,-5 -39,-2 -58,29 -33,53 -114,103 -203,123 -74,17 -80,17 -163,-1 -71,-15 -96,-25 -136,-57 -78,-61 -112,-116 -133,-213.999 -18,-82 -18,-88 -1,-167 31,-142 124,-406 199,-567 81,-173 188,-348 301,-490 41,-52 93,-118 114,-146 44,-58 166,-171 286,-266 288,-227 547,-345 934.999,-427 195,-41 430,-53 624,-31 148,17 415,84 538,136 356,147 499,179 798,178 226,0 336,-16 501,-70 l 109,-36 v -3362.999 -3363.999 l -1580,-4638.998 L 21640,56542.006 v -346 -346 h 310 309.999 V 52921.007 49991.008 L 21830,48842.009 l -430,-1149 v -341 -342 h 430 429.999 V 29840.015 12670.02 h 2885 2884.999 v 17169.995 17169.994 h 429.999 430 v 347 346 l -430,1149 -429.999,1149.999 v 2923.999 2923.999 h 344.999 346 l -4,348 -3,347 -1611.999,4724.999 -1612,4724.998 V 71023.002 76050 h -344.999 -345 z m -595,-765 c 55,-8 120,-21 145,-29 75,-23 250,-95 309,-126 31,-16 75,-34 99,-40 l 42,-11 v -799.999 c 0,-739 -1,-801 -16,-795 -35,13 -263,55 -356,65 -124,14 -357,14 -489,0 -220,-22 -541,-104 -749,-191 -229,-96 -367,-128 -555,-128 -274,1 -555,89 -793.999,249 -148,100 -335,289 -444,450 -42,61 -46,81 -16,81 28,0 246,55 344,87 115,37 298.999,115 443.999,188 245,123 525,302 1141,733.999 245,171 409,250 562,270 101,13 225,12 333,-4 z m 2384.999,-14493.995 c 764,-2245.999 1390,-4084.999 1390,-4086.999 0,-2 -1263,-4 -2806,-4 -2240.999,0 -2804.999,3 -2801.999,13 3,6 634,1861 1403,4119.999 1344,3945.999 1398.999,4105.999 1411.999,4074.999 7,-18 638,-1871 1403,-4116.999 z m 750,-7985.998 v -3204.999 h -2194.999 -2195 v 3204.999 3204.999 h 2195 2194.999 z m 612,-4399.998 c 104,-275 191,-510 194,-522 l 6,-23 h -3006 c -1652.999,0 -3005.999,2 -3005.999,3 0,3 138,372 372,995 l 19,52 2616.999,-2 2616,-3 z M 24279.999,44805.01 v -2204.999 h -665 -665 v 2204.999 2204.999 h 665 665 z m 1079.999,0 v -2204.999 h -195 -194.999 v 2204.999 2204.999 h 194.999 195 z m 1980,0 v -2204.999 h -645 -645 v 2204.999 2204.999 h 645 645 z m 0,-17169.995 V 13360.02 h -2194.999 -2195 v 14274.995 14274.996 h 2195 2194.999 z" id="path67" style="fill:url(#linearGradient545);fill-opacity:1"></path>
      <path d="m 24918,55000 c -191,-48 -302,-115 -448,-266 -188,-195 -312,-441 -416,-824 -84,-310 -136,-606 -173,-985 -40,-397 -44,-520 -46,-1250 -2,-677 -1,-724 16,-780 36,-114 123,-200 241,-237 56,-17 115,-18 1058,-18 971,0 1000,1 1061,20 120,38 210,131 243,250 21,78 31,854 17,1311 -25,775 -85,1245 -221,1729 -117,414 -301,716 -545,898 -147,109 -337,171 -545,178 -114,4 -136,1 -242,-26 z m 289,-725 c 91,-38 158,-119 238,-289 185,-390 269,-974 291,-2031 4,-176 3,-377 -1,-448 l -7,-127 -577,2 -576,3 1,455 c 1,1027 100,1750 297,2163 116,245 212,323 334,272 z" id="path69" style="fill:url(#linearGradient547);fill-opacity:1"></path>
      <path d="m 13795,70620 c -288,-39 -535,-156 -737,-349 -189,-179 -295,-369 -366,-651 -23,-92 -26,-125 -26,-265 1,-147 3,-170 33,-285 43,-164 79,-257 143,-360 108,-177 228,-302 396,-414 122,-81 228,-128 381,-169 110,-29 126,-31 311,-31 173,-1 206,2 290,23 485,121 830,466 951,951 21,83 24,119 24,285 0,165 -3,202 -24,285 -81,330 -262,590 -538,774 -127,84 -228,128 -396,171 -106,28 -157,36 -257,39 -69,3 -152,1 -185,-4 z m 329,-864 c 71,-36 152,-113 189,-180 109,-197 51,-441 -134,-565 -90,-60 -142,-74 -262,-69 -88,3 -110,8 -161,34 -91,44 -159,113 -203,202 -37,75 -38,78 -38,192 0,110 2,118 34,182 44,90 114,159 204,203 72,35 72,36 192,33 110,-3 125,-5 179,-32 z" id="path71" style="fill:url(#linearGradient549);fill-opacity:1"></path>
      <path d="m 7748,64899 c -113,-14 -290,-61 -412,-110 -520,-206 -907,-675 -1017,-1226 -27,-138 -36,-380 -20,-523 33,-280 150,-576 317,-800 117,-156 325,-345 489,-442 239,-142 513,-223 795,-235 643,-26 1254,331 1549,907 160,311 222,659 176,979 -20,133 -66,308 -110,419 -126,313 -383,616 -670,792 -168,103 -368,182 -561,220 -125,25 -406,35 -536,19 z m 482,-790 c 41,-12 77,-25 80,-28 3,-4 36,-22 75,-41 150,-75 303,-230 385,-390 53,-103 72,-196 77,-366 5,-151 3,-169 -21,-263 -28,-109 -58,-178 -112,-254 -19,-26 -34,-51 -34,-57 0,-5 -33,-42 -72,-82 -70,-70 -212,-166 -301,-203 -175,-73 -460,-75 -662,-5 -178,61 -391,253 -468,420 -26,58 -48,107 -52,120 -1,3 -7,17 -13,31 -34,83 -44,332 -17,461 21,98 113,285 183,371 50,61 192,187 211,187 5,0 40,18 80,39 137,76 210,91 421,87 139,-3 177,-7 240,-27 z" id="path73" style="fill:url(#linearGradient551);fill-opacity:1"></path>
      <path d="M 3140,60058 V 56116 L 1575,47535 10,38954 v -337 -337 H 355 700 V 25480 12680 h 2920 2920 v 12800 12800 h 325 325 v 342 342 l -1565,8581 -1565,8581 v 3937 3937 h -460 -460 z m 1909,-13203 1437,-7880 -2880,-3 c -1583,-1 -2882,0 -2884,3 -6,5 2864,15759 2875,15785 5,12 7,11 10,-5 3,-11 651,-3566 1442,-7900 z M 5850,36050 V 33820 H 3620 1390 v 2230 2230 h 2230 2230 z m 0,-12800 V 13370 H 3620 1390 v 9880 9880 h 2230 2230 z" id="path75" style="fill:url(#linearGradient553);fill-opacity:1"></path>
      <path d="m 2000,31250 v -960 h 345 345 v 960 960 h -345 -345 z" id="path77" style="fill:url(#linearGradient555);fill-opacity:1"></path>
      <path d="m 3270,31250 v -960 h 345 345 v 960 960 h -345 -345 z" id="path79" style="fill:url(#linearGradient557);fill-opacity:1"></path>
      <path d="m 4540,31250 v -960 h 345 345 v 960 960 h -345 -345 z" id="path81" style="fill:url(#linearGradient559);fill-opacity:1"></path>
      <path d="m 44850,57565 v -4715 l -1740,-5149 -1740,-5150 v -332 -331 l 125,-694 126,-694 -126,-769 -125,-768 v -347 -346 h 470 470 v -9920 -9920 h -460 -460 v 9040 9040 h -6210 l -6220.127,-0.779 C 28950.572,31087.45 28950.067,28972.451 28950,24510 V 12670 h 2895 2895 v 9040 9040 h 430 430 v -9037 -9038 h 6250 6250 v 12798 12797 h 470 470 v 347 347 l -130,718 c -71,394 -130,729 -130,743 0,14 59,349 130,743 l 130,718 v 335 l -1,334 -1739,5170 c -958,2850 -1744,5169 -1749,5167 -8,-1 -11,835 -11,2793 v 2794 l 53,15 c 122,36 250,50 452,50 305,1 419,-22 741,-150 161,-64 311,-108 493,-145 141,-29 447,-36 608,-15 153,20 438,92 563,141 505,199 936,598 1218,1125 96,181 200,457 247,662 18,75 18,80 0,159 -22,96 -58,155 -127,210 -49,39 -76,49 -180,71 -48,10 -68,9 -138,-7 -92,-21 -154,-56 -200,-115 -30,-38 -32,-39 -83,-34 -186,19 -307,50 -497,126 -313,126 -510,243 -1245,740 -422,285 -510,330 -776,397 -184,47 -291,61 -459,61 -163,0 -297,-19 -498,-69 -90,-23 -166,-41 -168,-41 -2,0 -4,140 -4,310 v 310 h -345 -345 z m 1515,3454 c 103,-13 213,-50 323,-109 42,-23 220,-139 396,-259 546,-372 744,-495 1005,-626 172,-85 283,-133 425,-182 107,-36 362,-103 395,-103 12,0 21,-6 21,-14 0,-24 -122,-187 -208,-277 -316,-334 -719,-504 -1147,-486 -200,9 -276,27 -495,117 -150,62 -244,92 -416,134 -255,62 -331,71 -614,70 -240,0 -368,-10 -484,-40 l -26,-6 v 804 804 l 38,21 c 48,28 221,96 296,117 141,41 332,54 491,35 z m 399,-13854 1544,-4590 -3096,-3 c -1702,-1 -3097,0 -3100,3 -3,2 669,1999 1493,4437 824,2438 1523,4507 1553,4598 31,91 57,160 59,155 2,-6 698,-2075 1547,-4600 z m 1565,-5302 c 0,-10 -44,-259 -97,-553 l -97,-535 h -2930 -2930 l -97,535 c -53,294 -97,543 -97,553 -1,16 154,17 3124,17 2970,0 3125,-1 3124,-17 z m -94,-2345 101,-558 h -3163 c -2868,0 -3163,1 -3163,16 0,17 166,1045 175,1082 l 5,22 2972,-2 2973,-3 z m -825,-5028 v -3780 h -2205 -2205 v 3780 3780 h 2205 2205 z m -6710,-7710 v -9040 h 1150 1150 v 6140 6140 h 2205 2205 v -8325 -8325 h -5560 -5560 v 9035 9035 h -1120 -1120 v -9040 -9040 h -2205 -2205 v 11230 11230 h 5530 5530 z" id="path83" style="fill:url(#linearGradient561);fill-opacity:1"></path>
      <path d="m 43580,36160 v -960 h 345 345 v 960 960 h -345 -345 z" id="path85" style="fill:url(#linearGradient563);fill-opacity:1"></path>
      <path d="m 44850,36160 v -960 h 345 345 v 960 960 h -345 -345 z" id="path87" style="fill:url(#linearGradient565);fill-opacity:1"></path>
      <path d="m 46120,36160 v -960 h 345 345 v 960 960 h -345 -345 z" id="path89" style="fill:url(#linearGradient567);fill-opacity:1"></path>
      <path d="m 9165,56097 c -109,-37 -186,-103 -232,-202 l -28,-60 -3,-422 -3,-422 -272,-3 -272,-3 -60,-28 c -120,-56 -202,-173 -213,-302 -13,-166 95,-321 258,-369 43,-13 105,-16 306,-16 h 253 l 3,-422 3,-423 28,-60 c 132,-283 522,-283 654,0 l 28,60 3,423 3,422 h 243 c 192,0 253,3 296,16 101,30 180,99 227,199 24,51 28,73 28,145 0,72 -4,94 -28,146 -36,77 -104,145 -182,181 l -60,28 -262,3 -262,3 -3,422 -3,422 -28,61 c -57,123 -177,204 -311,211 -41,1 -88,-3 -111,-10 z" id="path91" style="fill:url(#linearGradient569);fill-opacity:1"></path>
      <path d="m 16958,54675 c -810,-111 -1466,-767 -1584,-1585 -20,-143 -15,-478 10,-609 60,-309 196,-602 392,-842 78,-96 256,-264 351,-332 229,-163 460,-263 748,-324 119,-25 148,-27 350,-27 200,0 232,3 353,28 553,113 985,423 1276,912 164,278 257,663 242,1005 -39,900 -716,1648 -1606,1774 -128,18 -398,18 -532,0 z m 478,-856 c 32,-6 64,-15 71,-21 7,-5 17,-7 23,-3 5,3 10,2 10,-3 0,-6 16,-13 36,-17 48,-8 175,-76 243,-129 29,-22 60,-45 68,-51 84,-56 236,-274 273,-390 7,-22 16,-44 20,-50 39,-49 54,-396 24,-541 -9,-44 -19,-81 -23,-84 -4,-3 -13,-25 -20,-49 -22,-75 -90,-192 -162,-277 -69,-83 -209,-204 -235,-204 -8,0 -14,-4 -14,-9 0,-12 -135,-77 -190,-91 -25,-7 -49,-16 -55,-20 -21,-17 -135,-30 -267,-30 -134,0 -278,15 -278,30 0,4 -24,13 -52,20 -51,12 -122,47 -244,119 -65,39 -224,192 -224,216 0,8 -4,15 -9,15 -22,0 -130,211 -151,295 -6,28 -17,61 -23,74 -16,33 -16,409 0,442 6,13 17,47 23,74 19,76 124,285 148,293 7,2 12,10 12,18 0,27 163,178 250,232 47,28 91,52 97,52 7,0 13,4 13,9 0,4 26,16 58,26 31,10 62,21 67,26 6,4 13,8 17,8 4,1 13,4 20,6 69,24 370,33 474,14 z" id="path93" style="fill:url(#linearGradient571);fill-opacity:1"></path>
      <path d="m 38650,52554 c -14,-2 -65,-11 -113,-20 -359,-63 -674,-295 -861,-635 -160,-292 -185,-675 -65,-1009 121,-340 427,-637 764,-743 151,-47 240,-61 395,-61 284,0 519,78 746,248 244,182 402,433 470,746 26,118 26,362 0,479 -39,181 -102,330 -194,461 -237,338 -578,523 -987,535 -71,2 -141,2 -155,-1 z m 305,-853 c 87,-43 154,-111 196,-199 86,-178 23,-401 -142,-511 -85,-57 -151,-74 -259,-69 -74,3 -98,9 -154,37 -86,42 -161,117 -200,201 -28,60 -31,74 -31,170 0,99 2,109 33,173 41,82 111,156 183,193 80,40 95,43 204,41 92,-2 106,-5 170,-36 z" id="path95" style="fill:url(#linearGradient573);fill-opacity:1"></path>
      <path d="m 33200,52356 c -236,-34 -452,-118 -660,-257 -121,-81 -313,-272 -396,-394 -363,-535 -363,-1216 0,-1750 83,-123 275,-314 396,-394 178,-118 368,-199 574,-243 146,-31 446,-31 592,0 206,44 409,130 576,243 126,85 316,276 397,399 143,215 224,427 256,668 50,380 -36,742 -256,1072 -81,121 -272,313 -394,396 -175,119 -404,214 -600,249 -124,23 -366,28 -485,11 z m 416,-716 c 288,-73 521,-306 594,-594 28,-110 28,-293 0,-402 -60,-233 -217,-428 -433,-534 -120,-59 -215,-80 -362,-80 -147,0 -242,21 -362,80 -216,106 -373,301 -433,534 -28,109 -28,292 0,402 72,287 304,520 590,594 106,27 298,27 406,0 z" id="path97" style="fill:url(#linearGradient575);fill-opacity:1"></path>
      <path d="m 40885,48257 c -109,-37 -186,-103 -232,-202 -26,-56 -28,-71 -31,-207 l -4,-148 h -62 c -154,0 -279,-78 -343,-215 -24,-51 -28,-73 -28,-145 0,-72 4,-94 28,-145 64,-137 189,-215 343,-215 h 62 l 4,-157 c 3,-148 5,-162 31,-218 36,-78 104,-146 181,-182 52,-24 74,-28 146,-28 72,0 94,4 146,28 77,36 145,104 181,182 26,56 28,70 31,218 l 4,157 h 57 c 107,0 201,40 272,116 48,52 64,81 83,144 69,231 -108,460 -355,460 h -57 l -4,148 c -3,136 -5,152 -31,208 -57,123 -177,204 -311,211 -41,1 -88,-3 -111,-10 z" id="path99" style="fill:url(#linearGradient577);fill-opacity:1"></path>
      <path d="m 15570,45535 c 0,-338 0,-345 20,-345 20,0 20,-7 20,-13380 V 18430 h -430 -430 V 28695 38960 H 11835 8920 V 25815 12670 h 6250 6250 v 345 c 0,223 -4,345 -10,345 -7,0 -10,5427 -10,16260 V 45880 H 18485 15570 Z M 20710,29275 V 13360 H 15160 9610 v 12455 12455 h 2225 2225 V 28005 17740 h 1120 1120 v 13725 13725 h 2205 2205 z" id="path101" style="fill:url(#linearGradient579);fill-opacity:1"></path>
      <path d="m 33825,9477 c -87,-29 -160,-85 -210,-161 -37,-56 -2256,-5884 -2276,-5978 -35,-161 47,-335 190,-405 48,-24 68,-28 141,-28 71,0 94,4 140,26 72,34 137,94 176,160 17,30 173,426 345,882 l 314,827 h 1265 1265 l 325,-856 c 207,-547 336,-873 357,-904 39,-58 103,-112 169,-142 75,-35 199,-33 275,5 143,70 225,244 190,405 -10,49 -2217,5871 -2266,5979 -32,70 -96,137 -162,169 -65,32 -175,42 -238,21 z m 578,-2647 c 266,-701 487,-1285 491,-1297 l 7,-23 h -990 c -545,0 -991,3 -991,7 0,22 986,2601 992,2595 4,-4 225,-581 491,-1282 z" id="path103" style="fill:url(#linearGradient581);fill-opacity:1"></path>
      <path d="m 12903,9362 c -28,-10 -70,-31 -92,-45 -93,-62 -158,-203 -148,-321 4,-47 231,-718 971,-2861 532,-1540 974,-2820 982,-2844 27,-72 91,-142 169,-181 63,-32 75,-35 159,-35 83,0 97,3 158,33 72,35 127,90 159,157 10,22 456,1307 990,2855 743,2153 972,2829 976,2876 11,122 -57,262 -155,325 -174,111 -407,51 -504,-128 -15,-26 -380,-1074 -813,-2328 -433,-1254 -793,-2293 -799,-2310 l -12,-30 -21,60 c -569,1658 -1582,4573 -1601,4608 -78,145 -270,222 -419,169 z" id="path105" style="fill:url(#linearGradient583);fill-opacity:1"></path>
      <path d="m 37254,9366 c -102,-33 -173,-111 -216,-234 l -23,-67 V 6135 3205 l 29,-59 c 37,-76 96,-135 172,-172 52,-25 70,-29 149,-29 79,0 97,4 149,29 76,37 135,96 172,172 l 29,59 5,2311 5,2311 1515,-2351 c 1022,-1586 1533,-2370 1569,-2409 38,-40 78,-69 130,-95 69,-34 82,-37 161,-37 77,0 92,3 154,34 85,42 143,98 182,177 l 29,59 v 2935 2935 l -29,59 c -37,76 -96,135 -172,172 -52,25 -70,29 -149,29 -79,0 -97,-4 -149,-29 -76,-37 -135,-96 -172,-172 l -29,-59 -5,-2319 -5,-2319 -1538,2385 c -1237,1919 -1548,2396 -1592,2437 -104,98 -261,144 -371,107 z" id="path107" style="fill:url(#linearGradient585);fill-opacity:1"></path>
      <path d="m 3384,9356 c -102,-33 -173,-111 -216,-234 l -23,-67 V 6125 3195 l 29,-59 c 37,-76 96,-135 172,-172 52,-25 70,-29 149,-29 79,0 97,4 149,29 76,37 135,96 172,172 l 29,59 5,2311 5,2311 1515,-2351 C 6392,3880 6903,3096 6939,3057 c 38,-40 78,-69 130,-95 69,-34 82,-37 161,-37 77,0 92,3 154,34 85,42 143,98 182,177 l 29,59 v 2935 2935 l -29,59 c -37,76 -96,135 -172,172 -52,25 -70,29 -149,29 -79,0 -97,-4 -149,-29 -76,-37 -135,-96 -172,-172 l -29,-59 -5,-2319 -5,-2319 -1538,2385 C 4110,8731 3799,9208 3755,9249 c -104,98 -261,144 -371,107 z" id="path109" style="fill:url(#linearGradient587);fill-opacity:1"></path>
      <path d="m 17975,9352 c -116,-40 -212,-145 -235,-255 -7,-36 -9,-922 -8,-2957 l 3,-2905 29,-59 c 37,-76 96,-135 172,-172 l 59,-29 1446,-3 1447,-2 -24,-93 c -46,-177 -65,-322 -71,-537 -8,-301 19,-522 102,-825 124,-452 378,-834 731,-1099 209,-156 405,-247 684,-316 527,-130 1113,-117 1755,39 627,153 1120,360 1860,781 94,53 209,118 257,144 135,73 492,347 830,639 l 56,48 184,-45 c 597,-147 1431,-238 2033,-222 392,10 622,38 920,113 352,88 539,185 716,370 121,127 175,234 231,460 29,116 32,142 31,278 0,142 -2,159 -40,306 -58,222 -134,368 -280,532 -204,231 -473,376 -843,455 -191,41 -466,55 -637,31 -111,-15 -376,-83 -491,-125 -119,-45 -332,-145 -451,-213 -49,-28 -91,-51 -95,-51 -3,0 -7,1194 -8,2653 l -3,2652 -28,57 c -36,74 -101,139 -175,175 -50,24 -69,28 -147,28 -78,0 -97,-4 -147,-28 -74,-36 -139,-101 -175,-175 l -28,-57 -3,-2892 -2,-2892 -128,-97 c -147,-113 -447,-351 -510,-406 l -44,-37 -76,51 c -43,29 -124,97 -181,152 -226,220 -377,474 -510,859 -100,290 -152,553 -221,1122 -37,303 -111,575 -214,779 -61,123 -63,128 -42,136 244,95 399,188 542,326 66,64 164,192 212,276 83,146 164,419 202,678 37,260 51,669 29,872 -15,135 -80,397 -127,512 -130,313 -388,590 -699,749 -122,62 -227,100 -409,146 l -120,31 -1345,-2 -1344,-3 -56,-26 c -79,-37 -133,-90 -171,-167 l -33,-67 V 6110 3175 l 29,-59 c 37,-76 96,-135 172,-172 52,-25 70,-29 149,-29 79,0 97,4 149,29 76,37 135,96 172,172 l 29,59 3,1218 2,1217 h 782 781 l 115,-56 c 96,-47 127,-68 181,-124 75,-76 140,-183 188,-311 50,-134 60,-182 93,-448 110,-886 275,-1452 558,-1911 121,-196 350,-461 516,-596 l 48,-40 -137,-112 c -75,-62 -183,-146 -238,-188 -165,-122 -829,-488 -1153,-635 -610,-277 -1035,-393 -1576,-429 -268,-18 -627,12 -803,67 -410,129 -690,426 -838,888 -83,257 -100,644 -41,930 29,142 105,335 168,428 41,60 52,87 72,170 17,74 17,80 0,155 -10,42 -23,86 -29,97 -19,38 -75,101 -115,129 -86,59 -7,56 -1684,56 l -1538,-1 v 1146 1145 l 1438,2 1437,3 59,29 c 76,37 135,96 172,172 25,52 29,70 29,149 0,79 -4,97 -29,149 -37,76 -96,135 -172,172 l -59,29 -1437,3 -1438,2 v 990 990 l 1443,2 1442,3 59,29 c 76,37 135,96 172,172 25,52 29,70 29,149 0,79 -4,97 -29,149 -37,76 -96,135 -172,172 l -59,29 -1650,2 c -1547,2 -1653,1 -1700,-15 z m 7249,-777 c 434,-103 668,-341 721,-735 34,-249 -4,-797 -69,-986 -89,-262 -202,-359 -561,-481 l -140,-48 -1042,-3 -1043,-2 v 1140 1140 h 1014 1014 z m 4641,-5299 c 176,-35 357,-131 449,-238 56,-65 115,-191 126,-271 21,-147 -22,-273 -114,-332 -156,-99 -359,-155 -705,-192 -218,-23 -724,-23 -1001,1 -330,28 -810,92 -810,107 0,11 388,301 535,400 443,300 822,490 1065,535 91,16 350,11 455,-10 z" id="path111" style="fill:url(#linearGradient589);fill-opacity:1"></path>
      <path d="m 8745,9322 c -116,-40 -212,-145 -235,-255 -7,-36 -9,-922 -8,-2957 l 3,-2905 29,-59 c 37,-76 96,-135 172,-172 l 59,-29 h 1665 1665 l 59,29 c 76,37 135,96 172,172 25,52 29,70 29,149 0,79 -4,97 -29,149 -37,76 -96,135 -172,172 l -59,29 -1442,3 -1443,2 v 1145 1145 l 1438,2 1437,3 59,29 c 76,37 140,101 174,174 23,49 27,70 27,147 0,79 -4,97 -29,149 -37,76 -96,135 -172,172 l -59,29 -1437,3 -1438,2 v 990 990 l 1443,2 1442,3 59,29 c 76,37 135,96 172,172 25,52 29,70 29,149 0,79 -4,97 -29,149 -37,76 -96,135 -172,172 l -59,29 -1650,2 c -1547,2 -1653,1 -1700,-15 z" id="path113" style="fill:url(#linearGradient591);fill-opacity:1"></path>
      <path d="m 42597,9186 c -105,-44 -167,-108 -207,-213 -20,-54 -20,-58 -18,-2896 l 3,-2842 26,-56 c 37,-79 90,-133 167,-171 l 67,-33 h 1440 1440 l 85,29 c 122,41 269,119 379,201 92,69 247,221 323,315 131,163 293,466 372,697 90,264 178,657 216,967 37,310 45,453 45,906 0,453 -8,596 -45,906 -38,310 -126,703 -216,967 -79,231 -241,534 -372,697 -76,94 -231,246 -323,315 -105,79 -251,157 -374,201 l -80,29 -1435,2 -1435,3 z m 2773,-719 c 218,-95 384,-274 521,-562 136,-287 209,-561 259,-969 37,-310 44,-446 44,-846 0,-400 -7,-536 -44,-846 -50,-408 -123,-682 -259,-969 -137,-288 -303,-467 -521,-562 l -75,-33 h -1107 -1108 v 2410 2410 h 1108 1107 z" id="path115" style="fill:url(#linearGradient593);fill-opacity:1"></path>
    </g>
  </g>
</svg>
